PathFileType	4	(X/Y/Z)	D:\Share\Shared_Data\Ergonomics\Sit To Stand Pertubation\S1\Perturbed_NoHarness.trc
DataRate	CameraRate	NumFrames	NumMarkers	Units	OrigDataRate	OrigDataStartFrame	OrigNumFrames	
100	100	9	18	m	100	5363	231
Frame#	Time	L_ASIS			R_ASIS			R_Pelvis			V_Sacral			L_Pelvis			Clavical			R_Acromium			L_Acromium			Sternum			Torso			R_Thigh_Med			R_Thigh_Lat			R_Thigh			R_Shank_Med			R_Shank_Lat			R_Shank			R_Heel			R_Toe			
		X1	Y1	Z1	X2	Y2	Z2	X3	Y3	Z3	X4	Y4	Z4	X5	Y5	Z5	X6	Y6	Z6	X7	Y7	Z7	X8	Y8	Z8	X9	Y9	Z9	X10	Y10	Z10	X11	Y11	Z11	X12	Y12	Z12	X13	Y13	Z13	X14	Y14	Z14	X15	Y15	Z15	X16	Y16	Z16	X17	Y17	Z17	X18	Y18	Z18	

5363	53.62	0.47443649	0.90483331	-0.1039967	0.45867847	0.89821228	0.094578949	0.37841116	0.90926996	0.12742027	0.28652319	0.90121875	-0.013413728	0.36489801	0.90765417	-0.15705423	0.43821545	1.2532852	-0.013940777	0.37661255	1.3266266	0.13601764	0.32465036	1.2771967	-0.20787273	0.42667139	1.2678851	0.088249779	0.43276633	1.2585472	-0.073780098	0.33509436	0.42027609	0.061788555	0.35871143	0.442655	0.17800121	0.44829779	0.60260712	0.11267453	0.33142551	0.1013668	0.10166621	0.31010159	0.10104643	0.18270525	0.32550922	0.31259927	0.19814026	0.26405505	0.033388935	0.12735897	0.46891864	0.051733273	0.14614214
5364	53.63	0.47499353	0.90475439	-0.10408027	0.45906418	0.89819147	0.094511185	0.37828128	0.90955133	0.12708685	0.28703986	0.90123517	-0.01361926	0.36544284	0.9074809	-0.15708185	0.43843286	1.2532153	-0.014052053	0.37673764	1.3264875	0.13588516	0.32501825	1.2771425	-0.20806287	0.42681772	1.2677736	0.088129463	0.43300436	1.2584952	-0.073873245	0.33528561	0.42028168	0.06171336	0.35882022	0.44270041	0.17793985	0.44854282	0.60256323	0.11266019	0.33148639	0.10138325	0.10164998	0.31009134	0.10108898	0.18268013	0.32554831	0.31262369	0.19808307	0.26406406	0.033407684	0.12734003	0.4689321	0.051708931	0.14613338
5365	53.64	0.47552832	0.90467767	-0.1041602	0.45940952	0.89817212	0.094459488	0.37823944	0.90975604	0.12681911	0.28752951	0.90124323	-0.01382921	0.36595407	0.90734052	-0.15707303	0.43864072	1.2531482	-0.014152765	0.37684332	1.3263433	0.13576282	0.3253689	1.2770658	-0.20823961	0.42694693	1.2676573	0.088021149	0.43323251	1.2584407	-0.073955406	0.33547491	0.42028259	0.061636932	0.35892325	0.44274231	0.17787541	0.44877286	0.60252032	0.11264156	0.33154568	0.101397	0.10163312	0.31007959	0.10112743	0.1826548	0.32558673	0.31264487	0.19802376	0.26407214	0.033423103	0.12732278	0.46894193	0.051686378	0.14612656
5366	53.65	0.47604132	0.90460303	-0.10423685	0.4597262	0.89815137	0.094417313	0.37827887	0.90989087	0.12660578	0.28799249	0.90124329	-0.014041397	0.36642764	0.9072323	-0.15703551	0.43883603	1.2530833	-0.014242922	0.37692865	1.3261952	0.13565041	0.32570016	1.2769661	-0.20840358	0.42705789	1.267538	0.087924469	0.43344864	1.2583834	-0.07402726	0.33566208	0.42027829	0.061560551	0.35902081	0.44277884	0.17780893	0.44898923	0.6024776	0.11261852	0.33160254	0.10140785	0.1016157	0.31006671	0.10116143	0.18262952	0.32562497	0.31266284	0.19796297	0.26407941	0.033435215	0.12730728	0.46894861	0.051666607	0.14612154
5367	53.66	0.47653287	0.90452997	-0.10431037	0.46002264	0.89812677	0.09437957	0.37838885	0.90996503	0.12643597	0.28842905	0.90123621	-0.014253556	0.36686426	0.90715326	-0.15697766	0.43901639	1.2530187	-0.014322605	0.37699286	1.3260446	0.13554773	0.32601056	1.2768441	-0.20855563	0.42714957	1.2674163	0.087838951	0.43365085	1.2583225	-0.074089485	0.3358468	0.42026825	0.061485531	0.35911301	0.44280878	0.17774132	0.44919299	0.60243427	0.11259113	0.3316564	0.1014157	0.10159792	0.31005289	0.10119073	0.18260452	0.32566309	0.31267752	0.19790144	0.26408569	0.033444141	0.12729354	0.4689527	0.051650082	0.14611813
5368	53.67	0.47700354	0.90445844	-0.10438085	0.46030441	0.89809705	0.094342682	0.37855621	0.90998865	0.12629986	0.28883951	0.90122333	-0.014463425	0.36726871	0.90709906	-0.15690805	0.43917981	1.2529537	-0.014392007	0.37703528	1.3258926	0.13545441	0.32629913	1.2767013	-0.20869695	0.42722131	1.2672932	0.087764076	0.43383765	1.2582577	-0.074142715	0.33602866	0.42025238	0.061413109	0.3591998	0.44283151	0.17767355	0.44938498	0.60238977	0.11255975	0.33170648	0.10142046	0.10158001	0.3100386	0.10121523	0.18258012	0.32570099	0.31268903	0.19783992	0.26409097	0.033450104	0.12728152	0.46895477	0.051636917	0.14611615
5369	53.68	0.47745364	0.90438824	-0.10444836	0.46057428	0.89806146	0.094304314	0.37876712	0.90997229	0.12618914	0.28922409	0.90120575	-0.014668818	0.36764893	0.90706458	-0.15683516	0.43932486	1.2528871	-0.01445146	0.37705585	1.3257401	0.13536996	0.32656549	1.2765406	-0.20882881	0.42727289	1.2671702	0.08769928	0.43400797	1.2581892	-0.07418763	0.33620679	0.42023077	0.061344334	0.35928116	0.44284698	0.17760645	0.44956577	0.60234381	0.1125248	0.33175238	0.10142216	0.10156227	0.31002396	0.10123498	0.18255664	0.32573846	0.31269754	0.19777907	0.26409528	0.0334534	0.12727112	0.46895532	0.05162698	0.14611533
5370	53.69	0.47788345	0.90431927	-0.1045129	0.46083307	0.89801978	0.094263252	0.37900803	0.90992621	0.12609713	0.28958295	0.90118512	-0.014867692	0.36801489	0.90704425	-0.15676717	0.43945087	1.2528182	-0.014501447	0.37705472	1.3255881	0.13529384	0.32680997	1.2763652	-0.20895268	0.42730444	1.2670483	0.087643867	0.43416113	1.2581168	-0.074224869	0.33638016	0.42020389	0.061279991	0.35935706	0.44285556	0.17754085	0.44973569	0.60229626	0.11248682	0.3317937	0.10142095	0.101545	0.31000943	0.10125015	0.18253432	0.32577509	0.31270312	0.19771965	0.26409854	0.033454361	0.12726221	0.4689548	0.051619965	0.14611543
5371	53.7	0.47829315	0.90425159	-0.10457455	0.4610802	0.89797266	0.094219086	0.37926648	0.90985944	0.12601878	0.2899162	0.90116266	-0.015058208	0.36837805	0.90703259	-0.15671165	0.43955777	1.2527462	-0.014542624	0.37703259	1.3254376	0.13522536	0.32703329	1.2761794	-0.20907001	0.42731665	1.2669287	0.087597084	0.43429697	1.2580413	-0.074255096	0.33654721	0.42017249	0.061220577	0.35942755	0.44285803	0.17747742	0.44989508	0.6022475	0.11244635	0.33183005	0.10141701	0.1015285	0.30999521	0.10126101	0.1825134	0.32581055	0.31270612	0.19766222	0.26410077	0.03345335	0.12725465	0.46895355	0.051615501	0.1461163
